<svg width="32" height="32" version="1.1" viewBox="0 0 32 32" xmlns="http://www.w3.org/2000/svg"><g transform="translate(-4.4906 -.39345)"><path d="m13.261 31.524c-2.1395-1.3456-5.3159-4.5673-7.3716-7.4765-0.36933-0.52268-0.7002-1.0222-0.73526-1.1101-0.048221-0.12084 0.32048-0.16807 1.5137-0.19388 3.4708-0.07509 7.1433-0.91218 10.79-2.4593l1.4305-0.60697 0.16859 0.57504c0.41189 1.4049 1.9196 2.8622 3.4323 3.3176 0.3938 0.11854 0.716 0.24935 0.716 0.29069 0 0.23654-2.3825 3.0439-3.6634 4.3168-1.3374 1.3289-3.429 3.0835-4.6033 3.8616l-0.41805 0.27698zm15.31-1.9592c0-0.04681 0.12363-0.25092 0.27474-0.45357 0.50248-0.6739 1.584-2.9871 1.9259-4.1195 0.69722-2.3087 0.76577-4.4466 0.20456-6.3806-0.28229-0.97279-0.85974-2.163-1.303-2.6858l-0.26904-0.31728 0.27396-0.64326c0.15067-0.35379 0.52168-1.3125 0.82445-2.1304 0.30277-0.81795 0.60822-1.5098 0.67879-1.5375 0.20347-0.07978 1.359 1.3757 1.9361 2.4385 0.98803 1.8199 1.1559 2.5765 1.1534 5.1986-0.0021 2.261-0.01065 2.3294-0.43175 3.4864-0.73266 2.013-1.5248 3.3729-2.9373 5.043-0.66779 0.78953-2.3308 2.2888-2.3308 2.1013zm-5.8362-6.5696c-2.0736-0.68788-3.4548-2.6861-3.2363-4.682 0.21273-1.9437 1.8582-3.7244 3.7016-4.0059l0.58421-0.08921-0.4476 0.75639c-0.24618 0.41602-0.77514 1.2353-1.1755 1.8206-0.6693 0.97857-0.72786 1.124-0.72786 1.8073 0 1.5564 1.2416 2.6923 2.9503 2.699 1.3591 0.0054 2.2385-0.71136 3.5141-2.8641 0.79458-1.3409 0.87678-1.3561 1.0205-0.18832 0.3875 3.1485-3.0488 5.7861-6.1835 4.7462zm-13.75-3.0067c0.00775-5.7851 3.8822-10.454 9.8853-11.913 1.6068-0.39051 5.1288-0.39735 6.4811-0.01259 1.0372 0.29508 1.0302 0.25054 0.32058 2.0599-0.86708 2.2108-1.339 3.0941-1.6859 3.1553-0.1715 0.03028-0.65358 0.11481-1.0713 0.18784-2.4965 0.43652-4.2397 2.2029-4.8696 4.9344-0.07024 0.30456-0.26332 0.44343-1.1984 0.86188-2.0574 0.92071-4.8829 1.6881-7.2264 1.9627l-0.63729 0.07466 0.00157-1.3108zm14.419 0.49655c-0.22275-0.09269-0.60009-0.38071-0.83853-0.64006-0.37165-0.40422-0.43355-0.56822-0.43355-1.1487 0-0.60648 0.07775-0.78992 0.74491-1.7572 0.8536-1.2377 2.3876-4.0686 3.0175-5.5685 1.398-3.3293 2.2239-6.5942 2.4897-9.8428l0.09284-1.1345 0.51569 0.07875c1.0429 0.15926 1.9995 0.60436 2.7692 1.2886l0.76122 0.67663-0.31176 1.65c-0.91749 4.8557-2.5597 9.7366-4.4564 13.245-1.364 2.5233-2.1768 3.3355-3.3284 3.3262-0.33959-0.0028-0.79969-0.08085-1.0224-0.17354zm11.966-1.9166c-0.2617-3.1634-1.3073-5.7082-3.2107-7.8146l-0.67673-0.74891 0.43735-1.6854c0.24054-0.92699 0.46954-1.7998 0.5089-1.9396 0.06177-0.21942 0.16221-0.1581 0.73442 0.44843 1.2803 1.3571 2.3344 3.3777 2.7912 5.3505 0.46435 2.0054 0.33671 4.8395-0.31289 6.9473l-0.17769 0.57656zm-9.4147-11.242c-0.97466-0.28635-2.9588-0.49935-4.6559-0.49983l-1.8385-5.26e-4 -1.435-4.2921 0.39436-0.08354c0.9061-0.19195 3.0663-0.24694 4.4492-0.11327 1.4534 0.14049 4.1072 0.67097 4.4884 0.89721 0.16784 0.09962 0.14386 0.3588-0.17173 1.8555-0.3876 1.8383-0.55464 2.3838-0.72441 2.3658-0.05717-0.0061-0.28507-0.06423-0.50644-0.12926z" stroke-width=".13111"/></g></svg>
